<?xml version="1.0" encoding="UTF-8" standalone="no"?><svg xmlns="http://www.w3.org/2000/svg" xmlns:xlink="http://www.w3.org/1999/xlink" contentScriptType="application/ecmascript" contentStyleType="text/css" height="762.5px" preserveAspectRatio="none" style="width:1884px;height:762px;" version="1.1" viewBox="0 0 1884 762" width="1884.375px" zoomAndPan="magnify"><defs><filter height="300%" id="f13wzsj5st4f8s" width="300%" x="-1" y="-1"><feGaussianBlur result="blurOut" stdDeviation="6.25"/><feColorMatrix in="blurOut" result="blurOut2" type="matrix" values="0 0 0 0 0 0 0 0 0 0 0 0 0 0 0 0 0 0 .4 0"/><feOffset dx="12.5" dy="12.5" in="blurOut2" result="blurOut3"/><feBlend in="SourceGraphic" in2="blurOut3" mode="normal"/></filter></defs><g><line style="stroke: #A80036; stroke-width: 3.125; stroke-dasharray: 5.0,5.0;" x1="103.125" x2="103.125" y1="120.2759" y2="639.0259"/><line style="stroke: #A80036; stroke-width: 3.125; stroke-dasharray: 5.0,5.0;" x1="868.75" x2="868.75" y1="120.2759" y2="639.0259"/><line style="stroke: #A80036; stroke-width: 3.125; stroke-dasharray: 5.0,5.0;" x1="1792.1875" x2="1792.1875" y1="120.2759" y2="639.0259"/><rect fill="#FEFECE" filter="url(#f13wzsj5st4f8s)" height="95.2759" style="stroke: #A80036; stroke-width: 4.6875;" width="146.875" x="25" y="9.375"/><text fill="#000000" font-family="sans-serif" font-size="43.75" lengthAdjust="spacingAndGlyphs" textLength="103.125" x="46.875" y="73.5474">Alice</text><rect fill="#FEFECE" filter="url(#f13wzsj5st4f8s)" height="95.2759" style="stroke: #A80036; stroke-width: 4.6875;" width="146.875" x="25" y="635.9009"/><text fill="#000000" font-family="sans-serif" font-size="43.75" lengthAdjust="spacingAndGlyphs" textLength="103.125" x="46.875" y="700.0732">Alice</text><rect fill="#FEFECE" filter="url(#f13wzsj5st4f8s)" height="95.2759" style="stroke: #A80036; stroke-width: 4.6875;" width="353.125" x="687.5" y="9.375"/><text fill="#000000" font-family="sans-serif" font-size="43.75" lengthAdjust="spacingAndGlyphs" textLength="309.375" x="709.375" y="73.5474">SmartContract</text><rect fill="#FEFECE" filter="url(#f13wzsj5st4f8s)" height="95.2759" style="stroke: #A80036; stroke-width: 4.6875;" width="353.125" x="687.5" y="635.9009"/><text fill="#000000" font-family="sans-serif" font-size="43.75" lengthAdjust="spacingAndGlyphs" textLength="309.375" x="709.375" y="700.0732">SmartContract</text><rect fill="#FEFECE" filter="url(#f13wzsj5st4f8s)" height="95.2759" style="stroke: #A80036; stroke-width: 4.6875;" width="131.25" x="1720.3125" y="9.375"/><text fill="#000000" font-family="sans-serif" font-size="43.75" lengthAdjust="spacingAndGlyphs" textLength="87.5" x="1742.1875" y="73.5474">Hub</text><rect fill="#FEFECE" filter="url(#f13wzsj5st4f8s)" height="95.2759" style="stroke: #A80036; stroke-width: 4.6875;" width="131.25" x="1720.3125" y="635.9009"/><text fill="#000000" font-family="sans-serif" font-size="43.75" lengthAdjust="spacingAndGlyphs" textLength="87.5" x="1742.1875" y="700.0732">Hub</text><polygon fill="#A80036" points="832.8125,342.1509,864.0625,354.6509,832.8125,367.1509,845.3125,354.6509" style="stroke: #A80036; stroke-width: 3.125;"/><line style="stroke: #A80036; stroke-width: 3.125;" x1="104.6875" x2="851.5625" y1="354.6509" y2="354.6509"/><svg x="126.5625" y="164.0259"><!--Generated by the Batik Graphics2D SVG Generator--><defs id="genericDefs"
  /><g transform="scale(9.7656,9.7656)" 
  ><g transform="scale(20,20) translate(0.2,0.6472) scale(0.5,0.5)" style="font-size:1; text-rendering:geometricPrecision; color-rendering:optimizeQuality; image-rendering:optimizeQuality; font-family:&apos;jlm_cmmi10&apos;; color-interpolation:linearRGB;"
    ><path style="stroke:none;" d="M0.6719 -0.5 L0.1562 -0.25 L0.6719 0 Q0.6875 0.0156 0.6875 0.0156 Q0.6875 0.0312 0.6719 0.0312 Q0.6719 0.0469 0.6719 0.0469 Q0.6719 0.0469 0.6562 0.0312 L0.1094 -0.2344 Q0.0781 -0.2344 0.0781 -0.25 Q0.0781 -0.2656 0.1094 -0.2656 L0.6562 -0.5312 Q0.6719 -0.5469 0.6719 -0.5469 Q0.6875 -0.5469 0.6875 -0.5312 Q0.6875 -0.5156 0.6875 -0.5156 Q0.6875 -0.5156 0.6719 -0.5 Z"
    /></g
    ><g transform="matrix(10,0,0,10,4,12.9444) translate(1.0556,0)" style="font-size:1; text-rendering:geometricPrecision; color-rendering:optimizeQuality; image-rendering:optimizeQuality; font-family:&apos;jlm_cmmi10&apos;; color-interpolation:linearRGB;"
    ><path style="stroke:none;" d="M0.0312 0.1719 L0.1875 -0.4375 Q0.2031 -0.5469 0.2969 -0.625 Q0.375 -0.7031 0.4531 -0.7031 Q0.5312 -0.7031 0.5781 -0.6406 Q0.5938 -0.6094 0.5938 -0.5781 Q0.5938 -0.5 0.5312 -0.4375 Q0.5 -0.4219 0.4844 -0.4062 Q0.5469 -0.3594 0.5469 -0.2656 Q0.5469 -0.1562 0.4688 -0.0781 Q0.3906 0 0.2969 0.0156 L0.2812 0.0156 Q0.1875 0.0156 0.1406 -0.0625 Q0.125 -0.0781 0.125 -0.1094 L0.0469 0.1875 L0.0469 0.1875 Q0.0469 0.1875 0.0312 0.1875 Q0.0312 0.1875 0.0312 0.1875 Q0.0312 0.1875 0.0312 0.1719 ZM0.3281 -0.4062 Q0.3438 -0.3906 0.375 -0.3906 Q0.4062 -0.3906 0.4219 -0.4062 Q0.4062 -0.4062 0.375 -0.4062 Q0.3438 -0.4062 0.3281 -0.4062 ZM0.4531 -0.4219 Q0.5156 -0.4688 0.5312 -0.5781 L0.5312 -0.5781 L0.5312 -0.5781 Q0.5312 -0.5938 0.5312 -0.6094 Q0.5312 -0.6719 0.4688 -0.6875 Q0.4688 -0.6875 0.4531 -0.6875 Q0.375 -0.6875 0.2969 -0.6094 Q0.2344 -0.5312 0.2031 -0.4219 L0.1562 -0.2344 Q0.1406 -0.1719 0.1406 -0.1562 Q0.1406 -0.0781 0.2031 -0.0312 Q0.2344 -0.0156 0.2812 -0.0156 Q0.3594 -0.0156 0.4219 -0.0938 Q0.4219 -0.1094 0.4219 -0.1094 Q0.4688 -0.1719 0.4688 -0.2812 Q0.4688 -0.2969 0.4688 -0.2969 Q0.4688 -0.3594 0.4531 -0.3906 Q0.4062 -0.375 0.375 -0.375 Q0.2969 -0.375 0.2969 -0.4062 Q0.2969 -0.4375 0.375 -0.4375 Q0.4219 -0.4375 0.4531 -0.4219 Z"
    /></g
    ><g transform="matrix(10,0,0,10,4,12.9444) translate(1.6212,0.15) scale(0.7,0.7)" style="font-size:1; text-rendering:geometricPrecision; color-rendering:optimizeQuality; image-rendering:optimizeQuality; font-family:&apos;jlm_cmmi10&apos;; color-interpolation:linearRGB;"
    ><path style="stroke:none;" d="M0.7656 -0.6875 L0.7031 -0.4375 Q0.6875 -0.4219 0.6875 -0.4219 L0.6875 -0.4219 L0.6719 -0.4219 Q0.6562 -0.4219 0.6562 -0.4375 L0.6719 -0.4844 L0.6719 -0.4844 Q0.6719 -0.6094 0.5938 -0.6562 L0.5938 -0.6562 Q0.5469 -0.6719 0.5 -0.6719 Q0.4062 -0.6719 0.3125 -0.5938 Q0.2812 -0.5781 0.2656 -0.5469 Q0.1719 -0.4375 0.1406 -0.2656 Q0.1406 -0.2344 0.1406 -0.2188 Q0.1406 -0.0781 0.25 -0.0312 Q0.2812 -0.0156 0.3438 -0.0156 Q0.4375 -0.0156 0.5156 -0.0781 Q0.5938 -0.1406 0.625 -0.2344 Q0.625 -0.25 0.6406 -0.25 Q0.6406 -0.25 0.6406 -0.2344 Q0.6406 -0.2188 0.625 -0.1719 Q0.5938 -0.1094 0.5312 -0.0625 Q0.4375 0.0156 0.3281 0.0156 Q0.1875 0.0156 0.1094 -0.0625 Q0.0469 -0.1406 0.0469 -0.25 Q0.0469 -0.4062 0.1562 -0.5312 Q0.2656 -0.6562 0.3906 -0.6875 Q0.4531 -0.7031 0.5 -0.7031 Q0.6094 -0.7031 0.6562 -0.6094 L0.7344 -0.6875 Q0.75 -0.7031 0.75 -0.7031 Q0.7656 -0.7031 0.7656 -0.6875 Z"
    /></g
    ><g transform="matrix(10,0,0,10,4,12.9444) translate(2.1215,0)" style="font-size:1; text-rendering:geometricPrecision; color-rendering:optimizeQuality; image-rendering:optimizeQuality; font-family:&apos;jlm_cmmi10&apos;; color-interpolation:linearRGB;"
    ><path style="stroke:none;" d="M0.2031 0 L0.2031 0 Q0.2031 0.0938 0.1406 0.1719 Q0.125 0.1875 0.1094 0.1875 Q0.1094 0.1875 0.1094 0.1875 Q0.1094 0.1719 0.1094 0.1719 Q0.1719 0.1094 0.1875 0.0156 Q0.1875 0.0156 0.1875 0 Q0.1875 -0.0156 0.1719 -0.0156 Q0.1719 -0.0156 0.1719 -0.0156 Q0.1562 0 0.1406 0 Q0.1094 0 0.0938 -0.0312 Q0.0938 -0.0469 0.0938 -0.0469 Q0.0938 -0.0938 0.1094 -0.1094 Q0.125 -0.1094 0.1406 -0.1094 Q0.1875 -0.1094 0.2031 -0.0469 Q0.2031 -0.0312 0.2031 0 Z"
    /></g
    ><g transform="matrix(10,0,0,10,4,12.9444)" style="font-size:1; text-rendering:geometricPrecision; color-rendering:optimizeQuality; image-rendering:optimizeQuality; font-family:&apos;jlm_cmmi10&apos;; color-interpolation:linearRGB;"
    ><rect x="2.5659" width="1.0659" height="0.04" y="-0.8544" style="stroke:none;"
      /><path d="M0.0312 0.1719 L0.1875 -0.4375 Q0.2031 -0.5469 0.2969 -0.625 Q0.375 -0.7031 0.4531 -0.7031 Q0.5312 -0.7031 0.5781 -0.6406 Q0.5938 -0.6094 0.5938 -0.5781 Q0.5938 -0.5 0.5312 -0.4375 Q0.5 -0.4219 0.4844 -0.4062 Q0.5469 -0.3594 0.5469 -0.2656 Q0.5469 -0.1562 0.4688 -0.0781 Q0.3906 0 0.2969 0.0156 L0.2812 0.0156 Q0.1875 0.0156 0.1406 -0.0625 Q0.125 -0.0781 0.125 -0.1094 L0.0469 0.1875 L0.0469 0.1875 Q0.0469 0.1875 0.0312 0.1875 Q0.0312 0.1875 0.0312 0.1875 Q0.0312 0.1875 0.0312 0.1719 ZM0.3281 -0.4062 Q0.3438 -0.3906 0.375 -0.3906 Q0.4062 -0.3906 0.4219 -0.4062 Q0.4062 -0.4062 0.375 -0.4062 Q0.3438 -0.4062 0.3281 -0.4062 ZM0.4531 -0.4219 Q0.5156 -0.4688 0.5312 -0.5781 L0.5312 -0.5781 L0.5312 -0.5781 Q0.5312 -0.5938 0.5312 -0.6094 Q0.5312 -0.6719 0.4688 -0.6875 Q0.4688 -0.6875 0.4531 -0.6875 Q0.375 -0.6875 0.2969 -0.6094 Q0.2344 -0.5312 0.2031 -0.4219 L0.1562 -0.2344 Q0.1406 -0.1719 0.1406 -0.1562 Q0.1406 -0.0781 0.2031 -0.0312 Q0.2344 -0.0156 0.2812 -0.0156 Q0.3594 -0.0156 0.4219 -0.0938 Q0.4219 -0.1094 0.4219 -0.1094 Q0.4688 -0.1719 0.4688 -0.2812 Q0.4688 -0.2969 0.4688 -0.2969 Q0.4688 -0.3594 0.4531 -0.3906 Q0.4062 -0.375 0.375 -0.375 Q0.2969 -0.375 0.2969 -0.4062 Q0.2969 -0.4375 0.375 -0.4375 Q0.4219 -0.4375 0.4531 -0.4219 Z" style="stroke:none;" transform="translate(2.5659,0)"
    /></g
    ><g transform="matrix(10,0,0,10,4,12.9444) translate(3.1316,0.15) scale(0.7,0.7)" style="font-size:1; text-rendering:geometricPrecision; color-rendering:optimizeQuality; image-rendering:optimizeQuality; font-family:&apos;jlm_cmmi10&apos;; color-interpolation:linearRGB;"
    ><path style="stroke:none;" d="M0.7656 -0.6875 L0.7031 -0.4375 Q0.6875 -0.4219 0.6875 -0.4219 L0.6875 -0.4219 L0.6719 -0.4219 Q0.6562 -0.4219 0.6562 -0.4375 L0.6719 -0.4844 L0.6719 -0.4844 Q0.6719 -0.6094 0.5938 -0.6562 L0.5938 -0.6562 Q0.5469 -0.6719 0.5 -0.6719 Q0.4062 -0.6719 0.3125 -0.5938 Q0.2812 -0.5781 0.2656 -0.5469 Q0.1719 -0.4375 0.1406 -0.2656 Q0.1406 -0.2344 0.1406 -0.2188 Q0.1406 -0.0781 0.25 -0.0312 Q0.2812 -0.0156 0.3438 -0.0156 Q0.4375 -0.0156 0.5156 -0.0781 Q0.5938 -0.1406 0.625 -0.2344 Q0.625 -0.25 0.6406 -0.25 Q0.6406 -0.25 0.6406 -0.2344 Q0.6406 -0.2188 0.625 -0.1719 Q0.5938 -0.1094 0.5312 -0.0625 Q0.4375 0.0156 0.3281 0.0156 Q0.1875 0.0156 0.1094 -0.0625 Q0.0469 -0.1406 0.0469 -0.25 Q0.0469 -0.4062 0.1562 -0.5312 Q0.2656 -0.6562 0.3906 -0.6875 Q0.4531 -0.7031 0.5 -0.7031 Q0.6094 -0.7031 0.6562 -0.6094 L0.7344 -0.6875 Q0.75 -0.7031 0.75 -0.7031 Q0.7656 -0.7031 0.7656 -0.6875 Z"
    /></g
    ><g transform="matrix(10,0,0,10,4,12.9444) translate(3.6319,0)" style="font-size:1; text-rendering:geometricPrecision; color-rendering:optimizeQuality; image-rendering:optimizeQuality; font-family:&apos;jlm_cmmi10&apos;; color-interpolation:linearRGB;"
    ><path style="stroke:none;" d="M0.2031 0 L0.2031 0 Q0.2031 0.0938 0.1406 0.1719 Q0.125 0.1875 0.1094 0.1875 Q0.1094 0.1875 0.1094 0.1875 Q0.1094 0.1719 0.1094 0.1719 Q0.1719 0.1094 0.1875 0.0156 Q0.1875 0.0156 0.1875 0 Q0.1875 -0.0156 0.1719 -0.0156 Q0.1719 -0.0156 0.1719 -0.0156 Q0.1562 0 0.1406 0 Q0.1094 0 0.0938 -0.0312 Q0.0938 -0.0469 0.0938 -0.0469 Q0.0938 -0.0938 0.1094 -0.1094 Q0.125 -0.1094 0.1406 -0.1094 Q0.1875 -0.1094 0.2031 -0.0469 Q0.2031 -0.0312 0.2031 0 Z"
    /></g
    ><g transform="matrix(10,0,0,10,4,12.9444) translate(4.0763,0)" style="font-size:1; text-rendering:geometricPrecision; color-rendering:optimizeQuality; image-rendering:optimizeQuality; font-family:&apos;jlm_cmmi10&apos;; color-interpolation:linearRGB;"
    ><path style="stroke:none;" d="M0.0312 0.1719 L0.1875 -0.4375 Q0.2031 -0.5469 0.2969 -0.625 Q0.375 -0.7031 0.4531 -0.7031 Q0.5312 -0.7031 0.5781 -0.6406 Q0.5938 -0.6094 0.5938 -0.5781 Q0.5938 -0.5 0.5312 -0.4375 Q0.5 -0.4219 0.4844 -0.4062 Q0.5469 -0.3594 0.5469 -0.2656 Q0.5469 -0.1562 0.4688 -0.0781 Q0.3906 0 0.2969 0.0156 L0.2812 0.0156 Q0.1875 0.0156 0.1406 -0.0625 Q0.125 -0.0781 0.125 -0.1094 L0.0469 0.1875 L0.0469 0.1875 Q0.0469 0.1875 0.0312 0.1875 Q0.0312 0.1875 0.0312 0.1875 Q0.0312 0.1875 0.0312 0.1719 ZM0.3281 -0.4062 Q0.3438 -0.3906 0.375 -0.3906 Q0.4062 -0.3906 0.4219 -0.4062 Q0.4062 -0.4062 0.375 -0.4062 Q0.3438 -0.4062 0.3281 -0.4062 ZM0.4531 -0.4219 Q0.5156 -0.4688 0.5312 -0.5781 L0.5312 -0.5781 L0.5312 -0.5781 Q0.5312 -0.5938 0.5312 -0.6094 Q0.5312 -0.6719 0.4688 -0.6875 Q0.4688 -0.6875 0.4531 -0.6875 Q0.375 -0.6875 0.2969 -0.6094 Q0.2344 -0.5312 0.2031 -0.4219 L0.1562 -0.2344 Q0.1406 -0.1719 0.1406 -0.1562 Q0.1406 -0.0781 0.2031 -0.0312 Q0.2344 -0.0156 0.2812 -0.0156 Q0.3594 -0.0156 0.4219 -0.0938 Q0.4219 -0.1094 0.4219 -0.1094 Q0.4688 -0.1719 0.4688 -0.2812 Q0.4688 -0.2969 0.4688 -0.2969 Q0.4688 -0.3594 0.4531 -0.3906 Q0.4062 -0.375 0.375 -0.375 Q0.2969 -0.375 0.2969 -0.4062 Q0.2969 -0.4375 0.375 -0.4375 Q0.4219 -0.4375 0.4531 -0.4219 Z"
    /></g
    ><g transform="matrix(10,0,0,10,4,12.9444) translate(4.6419,0.15) scale(0.7,0.7)" style="font-size:1; text-rendering:geometricPrecision; color-rendering:optimizeQuality; image-rendering:optimizeQuality; font-family:&apos;jlm_cmmi10&apos;; color-interpolation:linearRGB;"
    ><path style="stroke:none;" d="M0.7656 -0.6094 L0.625 -0.0625 L0.625 -0.0469 Q0.625 -0.0312 0.6719 -0.0312 L0.6719 -0.0312 L0.6875 -0.0312 Q0.7188 -0.0312 0.7188 -0.0156 Q0.7188 0 0.7031 0 L0.6406 0 L0.6406 0 L0.5781 0 L0.5625 0 L0.4375 0 L0.4375 0 Q0.4219 0 0.4219 -0.0156 Q0.4219 -0.0312 0.4375 -0.0312 L0.4375 -0.0312 L0.4375 -0.0312 L0.4531 -0.0312 Q0.5156 -0.0312 0.5312 -0.0469 L0.5312 -0.0469 Q0.5312 -0.0469 0.5469 -0.0625 L0.6094 -0.3438 L0.3125 -0.3438 L0.2344 -0.0625 L0.2344 -0.0469 Q0.2344 -0.0312 0.2812 -0.0312 L0.2812 -0.0312 L0.2812 -0.0312 L0.2969 -0.0312 Q0.3281 -0.0312 0.3281 -0.0156 Q0.3281 0 0.3125 0 L0.25 0 L0.25 0 L0.1875 0 L0.1875 0 L0.0469 0 L0.0469 0 Q0.0312 0 0.0312 -0.0156 Q0.0312 -0.0312 0.0469 -0.0312 L0.0625 -0.0312 Q0.125 -0.0312 0.1406 -0.0469 Q0.1562 -0.0469 0.1562 -0.0781 Q0.1562 -0.0781 0.1562 -0.0781 L0.2969 -0.6094 Q0.2969 -0.625 0.2969 -0.6406 Q0.2969 -0.6406 0.2812 -0.6562 L0.2812 -0.6562 L0.2812 -0.6562 Q0.2812 -0.6562 0.2656 -0.6562 Q0.25 -0.6562 0.2344 -0.6562 Q0.2031 -0.6562 0.2031 -0.6562 Q0.2031 -0.6875 0.2188 -0.6875 L0.3438 -0.6875 L0.3438 -0.6875 L0.4844 -0.6875 L0.4844 -0.6875 Q0.4844 -0.6875 0.4844 -0.6719 Q0.4844 -0.6562 0.4844 -0.6562 L0.4844 -0.6562 L0.4844 -0.6562 L0.4844 -0.6562 L0.4688 -0.6562 L0.4531 -0.6562 Q0.3906 -0.6562 0.3906 -0.6406 L0.3906 -0.6406 L0.3906 -0.6406 Q0.375 -0.625 0.375 -0.6094 L0.3125 -0.375 L0.625 -0.375 L0.6875 -0.6094 Q0.6875 -0.625 0.6875 -0.6406 Q0.6875 -0.6406 0.6719 -0.6562 Q0.6719 -0.6562 0.6562 -0.6562 Q0.6406 -0.6562 0.625 -0.6562 Q0.5938 -0.6562 0.5938 -0.6562 Q0.5938 -0.6875 0.6094 -0.6875 L0.7344 -0.6875 L0.7344 -0.6875 L0.8594 -0.6875 L0.8594 -0.6875 Q0.875 -0.6875 0.875 -0.6719 Q0.875 -0.6562 0.8594 -0.6562 L0.8594 -0.6562 Q0.8594 -0.6562 0.8438 -0.6562 Q0.7812 -0.6562 0.7812 -0.6406 Q0.7656 -0.625 0.7656 -0.6094 Z"
    /></g
    ><g transform="matrix(10,0,0,10,4,12.9444) translate(5.5016,0)" style="font-size:1; text-rendering:geometricPrecision; color-rendering:optimizeQuality; image-rendering:optimizeQuality; font-family:&apos;jlm_cmmi10&apos;; color-interpolation:linearRGB;"
    ><path style="stroke:none;" d="M0.6719 -0.2344 L0.125 0.0312 Q0.1094 0.0469 0.1094 0.0469 Q0.0938 0.0469 0.0781 0.0312 Q0.0781 0.0156 0.0781 0.0156 Q0.0781 0.0156 0.1094 0 L0.625 -0.25 L0.1094 -0.5 Q0.0781 -0.5156 0.0781 -0.5156 Q0.0781 -0.5312 0.0938 -0.5312 Q0.0938 -0.5469 0.1094 -0.5469 Q0.1094 -0.5469 0.125 -0.5312 L0.6719 -0.2656 Q0.6875 -0.2656 0.6875 -0.25 Q0.6875 -0.2344 0.6719 -0.2344 Z"
    /></g
  ></g
></svg
>
<polygon fill="#A80036" points="1754.6875,570.2759,1785.9375,582.7759,1754.6875,595.2759,1767.1875,582.7759" style="stroke: #A80036; stroke-width: 3.125;"/><line style="stroke: #A80036; stroke-width: 3.125;" x1="870.3125" x2="1773.4375" y1="582.7759" y2="582.7759"/><svg x="892.1875" y="392.1509"><!--Generated by the Batik Graphics2D SVG Generator--><defs id="genericDefs"
  /><g transform="scale(9.7656,9.7656)" 
  ><g transform="scale(20,20) translate(0.2,0.6472) scale(0.5,0.5)" style="font-size:1; text-rendering:geometricPrecision; color-rendering:optimizeQuality; image-rendering:optimizeQuality; font-family:&apos;jlm_cmmi10&apos;; color-interpolation:linearRGB;"
    ><path style="stroke:none;" d="M0.6719 -0.5 L0.1562 -0.25 L0.6719 0 Q0.6875 0.0156 0.6875 0.0156 Q0.6875 0.0312 0.6719 0.0312 Q0.6719 0.0469 0.6719 0.0469 Q0.6719 0.0469 0.6562 0.0312 L0.1094 -0.2344 Q0.0781 -0.2344 0.0781 -0.25 Q0.0781 -0.2656 0.1094 -0.2656 L0.6562 -0.5312 Q0.6719 -0.5469 0.6719 -0.5469 Q0.6875 -0.5469 0.6875 -0.5312 Q0.6875 -0.5156 0.6875 -0.5156 Q0.6875 -0.5156 0.6719 -0.5 Z"
    /></g
    ><g transform="matrix(10,0,0,10,4,12.9444) translate(1.0556,0)" style="font-size:1; text-rendering:geometricPrecision; color-rendering:optimizeQuality; image-rendering:optimizeQuality; font-family:&apos;jlm_cmmi10&apos;; color-interpolation:linearRGB;"
    ><path style="stroke:none;" d="M0.0312 0.1719 L0.1875 -0.4375 Q0.2031 -0.5469 0.2969 -0.625 Q0.375 -0.7031 0.4531 -0.7031 Q0.5312 -0.7031 0.5781 -0.6406 Q0.5938 -0.6094 0.5938 -0.5781 Q0.5938 -0.5 0.5312 -0.4375 Q0.5 -0.4219 0.4844 -0.4062 Q0.5469 -0.3594 0.5469 -0.2656 Q0.5469 -0.1562 0.4688 -0.0781 Q0.3906 0 0.2969 0.0156 L0.2812 0.0156 Q0.1875 0.0156 0.1406 -0.0625 Q0.125 -0.0781 0.125 -0.1094 L0.0469 0.1875 L0.0469 0.1875 Q0.0469 0.1875 0.0312 0.1875 Q0.0312 0.1875 0.0312 0.1875 Q0.0312 0.1875 0.0312 0.1719 ZM0.3281 -0.4062 Q0.3438 -0.3906 0.375 -0.3906 Q0.4062 -0.3906 0.4219 -0.4062 Q0.4062 -0.4062 0.375 -0.4062 Q0.3438 -0.4062 0.3281 -0.4062 ZM0.4531 -0.4219 Q0.5156 -0.4688 0.5312 -0.5781 L0.5312 -0.5781 L0.5312 -0.5781 Q0.5312 -0.5938 0.5312 -0.6094 Q0.5312 -0.6719 0.4688 -0.6875 Q0.4688 -0.6875 0.4531 -0.6875 Q0.375 -0.6875 0.2969 -0.6094 Q0.2344 -0.5312 0.2031 -0.4219 L0.1562 -0.2344 Q0.1406 -0.1719 0.1406 -0.1562 Q0.1406 -0.0781 0.2031 -0.0312 Q0.2344 -0.0156 0.2812 -0.0156 Q0.3594 -0.0156 0.4219 -0.0938 Q0.4219 -0.1094 0.4219 -0.1094 Q0.4688 -0.1719 0.4688 -0.2812 Q0.4688 -0.2969 0.4688 -0.2969 Q0.4688 -0.3594 0.4531 -0.3906 Q0.4062 -0.375 0.375 -0.375 Q0.2969 -0.375 0.2969 -0.4062 Q0.2969 -0.4375 0.375 -0.4375 Q0.4219 -0.4375 0.4531 -0.4219 Z"
    /></g
    ><g transform="matrix(10,0,0,10,4,12.9444) translate(1.6212,0.15) scale(0.7,0.7)" style="font-size:1; text-rendering:geometricPrecision; color-rendering:optimizeQuality; image-rendering:optimizeQuality; font-family:&apos;jlm_cmmi10&apos;; color-interpolation:linearRGB;"
    ><path style="stroke:none;" d="M0.7656 -0.6875 L0.7031 -0.4375 Q0.6875 -0.4219 0.6875 -0.4219 L0.6875 -0.4219 L0.6719 -0.4219 Q0.6562 -0.4219 0.6562 -0.4375 L0.6719 -0.4844 L0.6719 -0.4844 Q0.6719 -0.6094 0.5938 -0.6562 L0.5938 -0.6562 Q0.5469 -0.6719 0.5 -0.6719 Q0.4062 -0.6719 0.3125 -0.5938 Q0.2812 -0.5781 0.2656 -0.5469 Q0.1719 -0.4375 0.1406 -0.2656 Q0.1406 -0.2344 0.1406 -0.2188 Q0.1406 -0.0781 0.25 -0.0312 Q0.2812 -0.0156 0.3438 -0.0156 Q0.4375 -0.0156 0.5156 -0.0781 Q0.5938 -0.1406 0.625 -0.2344 Q0.625 -0.25 0.6406 -0.25 Q0.6406 -0.25 0.6406 -0.2344 Q0.6406 -0.2188 0.625 -0.1719 Q0.5938 -0.1094 0.5312 -0.0625 Q0.4375 0.0156 0.3281 0.0156 Q0.1875 0.0156 0.1094 -0.0625 Q0.0469 -0.1406 0.0469 -0.25 Q0.0469 -0.4062 0.1562 -0.5312 Q0.2656 -0.6562 0.3906 -0.6875 Q0.4531 -0.7031 0.5 -0.7031 Q0.6094 -0.7031 0.6562 -0.6094 L0.7344 -0.6875 Q0.75 -0.7031 0.75 -0.7031 Q0.7656 -0.7031 0.7656 -0.6875 Z"
    /></g
    ><g transform="matrix(10,0,0,10,4,12.9444) translate(2.1215,0)" style="font-size:1; text-rendering:geometricPrecision; color-rendering:optimizeQuality; image-rendering:optimizeQuality; font-family:&apos;jlm_cmmi10&apos;; color-interpolation:linearRGB;"
    ><path style="stroke:none;" d="M0.2031 0 L0.2031 0 Q0.2031 0.0938 0.1406 0.1719 Q0.125 0.1875 0.1094 0.1875 Q0.1094 0.1875 0.1094 0.1875 Q0.1094 0.1719 0.1094 0.1719 Q0.1719 0.1094 0.1875 0.0156 Q0.1875 0.0156 0.1875 0 Q0.1875 -0.0156 0.1719 -0.0156 Q0.1719 -0.0156 0.1719 -0.0156 Q0.1562 0 0.1406 0 Q0.1094 0 0.0938 -0.0312 Q0.0938 -0.0469 0.0938 -0.0469 Q0.0938 -0.0938 0.1094 -0.1094 Q0.125 -0.1094 0.1406 -0.1094 Q0.1875 -0.1094 0.2031 -0.0469 Q0.2031 -0.0312 0.2031 0 Z"
    /></g
    ><g transform="matrix(10,0,0,10,4,12.9444)" style="font-size:1; text-rendering:geometricPrecision; color-rendering:optimizeQuality; image-rendering:optimizeQuality; font-family:&apos;jlm_cmmi10&apos;; color-interpolation:linearRGB;"
    ><rect x="2.5659" width="1.0659" height="0.04" y="-0.8544" style="stroke:none;"
      /><path d="M0.0312 0.1719 L0.1875 -0.4375 Q0.2031 -0.5469 0.2969 -0.625 Q0.375 -0.7031 0.4531 -0.7031 Q0.5312 -0.7031 0.5781 -0.6406 Q0.5938 -0.6094 0.5938 -0.5781 Q0.5938 -0.5 0.5312 -0.4375 Q0.5 -0.4219 0.4844 -0.4062 Q0.5469 -0.3594 0.5469 -0.2656 Q0.5469 -0.1562 0.4688 -0.0781 Q0.3906 0 0.2969 0.0156 L0.2812 0.0156 Q0.1875 0.0156 0.1406 -0.0625 Q0.125 -0.0781 0.125 -0.1094 L0.0469 0.1875 L0.0469 0.1875 Q0.0469 0.1875 0.0312 0.1875 Q0.0312 0.1875 0.0312 0.1875 Q0.0312 0.1875 0.0312 0.1719 ZM0.3281 -0.4062 Q0.3438 -0.3906 0.375 -0.3906 Q0.4062 -0.3906 0.4219 -0.4062 Q0.4062 -0.4062 0.375 -0.4062 Q0.3438 -0.4062 0.3281 -0.4062 ZM0.4531 -0.4219 Q0.5156 -0.4688 0.5312 -0.5781 L0.5312 -0.5781 L0.5312 -0.5781 Q0.5312 -0.5938 0.5312 -0.6094 Q0.5312 -0.6719 0.4688 -0.6875 Q0.4688 -0.6875 0.4531 -0.6875 Q0.375 -0.6875 0.2969 -0.6094 Q0.2344 -0.5312 0.2031 -0.4219 L0.1562 -0.2344 Q0.1406 -0.1719 0.1406 -0.1562 Q0.1406 -0.0781 0.2031 -0.0312 Q0.2344 -0.0156 0.2812 -0.0156 Q0.3594 -0.0156 0.4219 -0.0938 Q0.4219 -0.1094 0.4219 -0.1094 Q0.4688 -0.1719 0.4688 -0.2812 Q0.4688 -0.2969 0.4688 -0.2969 Q0.4688 -0.3594 0.4531 -0.3906 Q0.4062 -0.375 0.375 -0.375 Q0.2969 -0.375 0.2969 -0.4062 Q0.2969 -0.4375 0.375 -0.4375 Q0.4219 -0.4375 0.4531 -0.4219 Z" style="stroke:none;" transform="translate(2.5659,0)"
    /></g
    ><g transform="matrix(10,0,0,10,4,12.9444) translate(3.1316,0.15) scale(0.7,0.7)" style="font-size:1; text-rendering:geometricPrecision; color-rendering:optimizeQuality; image-rendering:optimizeQuality; font-family:&apos;jlm_cmmi10&apos;; color-interpolation:linearRGB;"
    ><path style="stroke:none;" d="M0.7656 -0.6875 L0.7031 -0.4375 Q0.6875 -0.4219 0.6875 -0.4219 L0.6875 -0.4219 L0.6719 -0.4219 Q0.6562 -0.4219 0.6562 -0.4375 L0.6719 -0.4844 L0.6719 -0.4844 Q0.6719 -0.6094 0.5938 -0.6562 L0.5938 -0.6562 Q0.5469 -0.6719 0.5 -0.6719 Q0.4062 -0.6719 0.3125 -0.5938 Q0.2812 -0.5781 0.2656 -0.5469 Q0.1719 -0.4375 0.1406 -0.2656 Q0.1406 -0.2344 0.1406 -0.2188 Q0.1406 -0.0781 0.25 -0.0312 Q0.2812 -0.0156 0.3438 -0.0156 Q0.4375 -0.0156 0.5156 -0.0781 Q0.5938 -0.1406 0.625 -0.2344 Q0.625 -0.25 0.6406 -0.25 Q0.6406 -0.25 0.6406 -0.2344 Q0.6406 -0.2188 0.625 -0.1719 Q0.5938 -0.1094 0.5312 -0.0625 Q0.4375 0.0156 0.3281 0.0156 Q0.1875 0.0156 0.1094 -0.0625 Q0.0469 -0.1406 0.0469 -0.25 Q0.0469 -0.4062 0.1562 -0.5312 Q0.2656 -0.6562 0.3906 -0.6875 Q0.4531 -0.7031 0.5 -0.7031 Q0.6094 -0.7031 0.6562 -0.6094 L0.7344 -0.6875 Q0.75 -0.7031 0.75 -0.7031 Q0.7656 -0.7031 0.7656 -0.6875 Z"
    /></g
    ><g transform="matrix(10,0,0,10,4,12.9444) translate(3.6319,0)" style="font-size:1; text-rendering:geometricPrecision; color-rendering:optimizeQuality; image-rendering:optimizeQuality; font-family:&apos;jlm_cmmi10&apos;; color-interpolation:linearRGB;"
    ><path style="stroke:none;" d="M0.2031 0 L0.2031 0 Q0.2031 0.0938 0.1406 0.1719 Q0.125 0.1875 0.1094 0.1875 Q0.1094 0.1875 0.1094 0.1875 Q0.1094 0.1719 0.1094 0.1719 Q0.1719 0.1094 0.1875 0.0156 Q0.1875 0.0156 0.1875 0 Q0.1875 -0.0156 0.1719 -0.0156 Q0.1719 -0.0156 0.1719 -0.0156 Q0.1562 0 0.1406 0 Q0.1094 0 0.0938 -0.0312 Q0.0938 -0.0469 0.0938 -0.0469 Q0.0938 -0.0938 0.1094 -0.1094 Q0.125 -0.1094 0.1406 -0.1094 Q0.1875 -0.1094 0.2031 -0.0469 Q0.2031 -0.0312 0.2031 0 Z"
    /></g
    ><g transform="matrix(10,0,0,10,4,12.9444) translate(4.0763,0)" style="font-size:1; text-rendering:geometricPrecision; color-rendering:optimizeQuality; image-rendering:optimizeQuality; font-family:&apos;jlm_cmmi10&apos;; color-interpolation:linearRGB;"
    ><path style="stroke:none;" d="M0.0312 0.1719 L0.1875 -0.4375 Q0.2031 -0.5469 0.2969 -0.625 Q0.375 -0.7031 0.4531 -0.7031 Q0.5312 -0.7031 0.5781 -0.6406 Q0.5938 -0.6094 0.5938 -0.5781 Q0.5938 -0.5 0.5312 -0.4375 Q0.5 -0.4219 0.4844 -0.4062 Q0.5469 -0.3594 0.5469 -0.2656 Q0.5469 -0.1562 0.4688 -0.0781 Q0.3906 0 0.2969 0.0156 L0.2812 0.0156 Q0.1875 0.0156 0.1406 -0.0625 Q0.125 -0.0781 0.125 -0.1094 L0.0469 0.1875 L0.0469 0.1875 Q0.0469 0.1875 0.0312 0.1875 Q0.0312 0.1875 0.0312 0.1875 Q0.0312 0.1875 0.0312 0.1719 ZM0.3281 -0.4062 Q0.3438 -0.3906 0.375 -0.3906 Q0.4062 -0.3906 0.4219 -0.4062 Q0.4062 -0.4062 0.375 -0.4062 Q0.3438 -0.4062 0.3281 -0.4062 ZM0.4531 -0.4219 Q0.5156 -0.4688 0.5312 -0.5781 L0.5312 -0.5781 L0.5312 -0.5781 Q0.5312 -0.5938 0.5312 -0.6094 Q0.5312 -0.6719 0.4688 -0.6875 Q0.4688 -0.6875 0.4531 -0.6875 Q0.375 -0.6875 0.2969 -0.6094 Q0.2344 -0.5312 0.2031 -0.4219 L0.1562 -0.2344 Q0.1406 -0.1719 0.1406 -0.1562 Q0.1406 -0.0781 0.2031 -0.0312 Q0.2344 -0.0156 0.2812 -0.0156 Q0.3594 -0.0156 0.4219 -0.0938 Q0.4219 -0.1094 0.4219 -0.1094 Q0.4688 -0.1719 0.4688 -0.2812 Q0.4688 -0.2969 0.4688 -0.2969 Q0.4688 -0.3594 0.4531 -0.3906 Q0.4062 -0.375 0.375 -0.375 Q0.2969 -0.375 0.2969 -0.4062 Q0.2969 -0.4375 0.375 -0.4375 Q0.4219 -0.4375 0.4531 -0.4219 Z"
    /></g
    ><g transform="matrix(10,0,0,10,4,12.9444) translate(4.6419,0.15) scale(0.7,0.7)" style="font-size:1; text-rendering:geometricPrecision; color-rendering:optimizeQuality; image-rendering:optimizeQuality; font-family:&apos;jlm_cmmi10&apos;; color-interpolation:linearRGB;"
    ><path style="stroke:none;" d="M0.7656 -0.6094 L0.625 -0.0625 L0.625 -0.0469 Q0.625 -0.0312 0.6719 -0.0312 L0.6719 -0.0312 L0.6875 -0.0312 Q0.7188 -0.0312 0.7188 -0.0156 Q0.7188 0 0.7031 0 L0.6406 0 L0.6406 0 L0.5781 0 L0.5625 0 L0.4375 0 L0.4375 0 Q0.4219 0 0.4219 -0.0156 Q0.4219 -0.0312 0.4375 -0.0312 L0.4375 -0.0312 L0.4375 -0.0312 L0.4531 -0.0312 Q0.5156 -0.0312 0.5312 -0.0469 L0.5312 -0.0469 Q0.5312 -0.0469 0.5469 -0.0625 L0.6094 -0.3438 L0.3125 -0.3438 L0.2344 -0.0625 L0.2344 -0.0469 Q0.2344 -0.0312 0.2812 -0.0312 L0.2812 -0.0312 L0.2812 -0.0312 L0.2969 -0.0312 Q0.3281 -0.0312 0.3281 -0.0156 Q0.3281 0 0.3125 0 L0.25 0 L0.25 0 L0.1875 0 L0.1875 0 L0.0469 0 L0.0469 0 Q0.0312 0 0.0312 -0.0156 Q0.0312 -0.0312 0.0469 -0.0312 L0.0625 -0.0312 Q0.125 -0.0312 0.1406 -0.0469 Q0.1562 -0.0469 0.1562 -0.0781 Q0.1562 -0.0781 0.1562 -0.0781 L0.2969 -0.6094 Q0.2969 -0.625 0.2969 -0.6406 Q0.2969 -0.6406 0.2812 -0.6562 L0.2812 -0.6562 L0.2812 -0.6562 Q0.2812 -0.6562 0.2656 -0.6562 Q0.25 -0.6562 0.2344 -0.6562 Q0.2031 -0.6562 0.2031 -0.6562 Q0.2031 -0.6875 0.2188 -0.6875 L0.3438 -0.6875 L0.3438 -0.6875 L0.4844 -0.6875 L0.4844 -0.6875 Q0.4844 -0.6875 0.4844 -0.6719 Q0.4844 -0.6562 0.4844 -0.6562 L0.4844 -0.6562 L0.4844 -0.6562 L0.4844 -0.6562 L0.4688 -0.6562 L0.4531 -0.6562 Q0.3906 -0.6562 0.3906 -0.6406 L0.3906 -0.6406 L0.3906 -0.6406 Q0.375 -0.625 0.375 -0.6094 L0.3125 -0.375 L0.625 -0.375 L0.6875 -0.6094 Q0.6875 -0.625 0.6875 -0.6406 Q0.6875 -0.6406 0.6719 -0.6562 Q0.6719 -0.6562 0.6562 -0.6562 Q0.6406 -0.6562 0.625 -0.6562 Q0.5938 -0.6562 0.5938 -0.6562 Q0.5938 -0.6875 0.6094 -0.6875 L0.7344 -0.6875 L0.7344 -0.6875 L0.8594 -0.6875 L0.8594 -0.6875 Q0.875 -0.6875 0.875 -0.6719 Q0.875 -0.6562 0.8594 -0.6562 L0.8594 -0.6562 Q0.8594 -0.6562 0.8438 -0.6562 Q0.7812 -0.6562 0.7812 -0.6406 Q0.7656 -0.625 0.7656 -0.6094 Z"
    /></g
    ><g transform="matrix(10,0,0,10,4,12.9444) translate(5.2238,0)" style="font-size:1; text-rendering:geometricPrecision; color-rendering:optimizeQuality; image-rendering:optimizeQuality; font-family:&apos;jlm_cmmi10&apos;; color-interpolation:linearRGB;"
    ><path style="stroke:none;" d="M0.2031 0 L0.2031 0 Q0.2031 0.0938 0.1406 0.1719 Q0.125 0.1875 0.1094 0.1875 Q0.1094 0.1875 0.1094 0.1875 Q0.1094 0.1719 0.1094 0.1719 Q0.1719 0.1094 0.1875 0.0156 Q0.1875 0.0156 0.1875 0 Q0.1875 -0.0156 0.1719 -0.0156 Q0.1719 -0.0156 0.1719 -0.0156 Q0.1562 0 0.1406 0 Q0.1094 0 0.0938 -0.0312 Q0.0938 -0.0469 0.0938 -0.0469 Q0.0938 -0.0938 0.1094 -0.1094 Q0.125 -0.1094 0.1406 -0.1094 Q0.1875 -0.1094 0.2031 -0.0469 Q0.2031 -0.0312 0.2031 0 Z"
    /></g
    ><g transform="matrix(10,0,0,10,4,12.9444) translate(5.6683,0)" style="font-size:1; text-rendering:geometricPrecision; color-rendering:optimizeQuality; image-rendering:optimizeQuality; font-family:&apos;jlm_cmmi10&apos;; color-interpolation:linearRGB;"
    ><path style="stroke:none;" d="M0.4844 -0.2344 L0.4844 -0.2344 L0.4844 -0.1719 Q0.5469 -0.25 0.5781 -0.375 Q0.5781 -0.3906 0.5938 -0.3906 Q0.6094 -0.3906 0.6094 -0.3906 Q0.6094 -0.3594 0.5781 -0.3125 Q0.5469 -0.2188 0.4844 -0.1406 Q0.4844 -0.125 0.4844 -0.1094 Q0.4844 -0.0156 0.5078 -0.0156 Q0.5312 -0.0156 0.5625 -0.0469 Q0.5625 -0.0469 0.5625 -0.0625 Q0.5625 -0.0625 0.5781 -0.0625 Q0.5938 -0.0625 0.5938 -0.0625 Q0.5938 -0.0469 0.5625 -0.0156 Q0.5312 0.0156 0.5 0.0156 Q0.4375 0.0156 0.4219 -0.0625 Q0.4219 -0.0625 0.4062 -0.0781 Q0.3125 0.0156 0.2031 0.0156 Q0.1094 0.0156 0.0625 -0.0625 Q0.0469 -0.1094 0.0469 -0.1562 Q0.0469 -0.2656 0.125 -0.3438 Q0.2031 -0.4375 0.2969 -0.4375 Q0.2969 -0.4375 0.3125 -0.4375 Q0.3906 -0.4375 0.4375 -0.375 Q0.4375 -0.375 0.4375 -0.375 Q0.4844 -0.3281 0.4844 -0.2344 ZM0.4062 -0.0938 L0.4062 -0.0938 Q0.4062 -0.1094 0.4062 -0.2188 Q0.4062 -0.3281 0.375 -0.375 Q0.375 -0.4062 0.3594 -0.4062 L0.3438 -0.4062 L0.3438 -0.4062 L0.3438 -0.4062 Q0.3281 -0.4219 0.3125 -0.4219 Q0.2344 -0.4219 0.1875 -0.3438 L0.1719 -0.3281 Q0.1406 -0.2656 0.125 -0.1719 Q0.1094 -0.1406 0.1094 -0.125 Q0.1094 -0.0312 0.1719 -0.0156 Q0.1875 -0.0156 0.2031 -0.0156 Q0.3125 -0.0156 0.4062 -0.0938 Z"
    /></g
    ><g transform="matrix(10,0,0,10,4,12.9444) translate(6.308,0.15) scale(0.7,0.7)" style="font-size:1; text-rendering:geometricPrecision; color-rendering:optimizeQuality; image-rendering:optimizeQuality; font-family:&apos;jlm_cmmi10&apos;; color-interpolation:linearRGB;"
    ><path style="stroke:none;" d="M0.7656 -0.6875 L0.7031 -0.4375 Q0.6875 -0.4219 0.6875 -0.4219 L0.6875 -0.4219 L0.6719 -0.4219 Q0.6562 -0.4219 0.6562 -0.4375 L0.6719 -0.4844 L0.6719 -0.4844 Q0.6719 -0.6094 0.5938 -0.6562 L0.5938 -0.6562 Q0.5469 -0.6719 0.5 -0.6719 Q0.4062 -0.6719 0.3125 -0.5938 Q0.2812 -0.5781 0.2656 -0.5469 Q0.1719 -0.4375 0.1406 -0.2656 Q0.1406 -0.2344 0.1406 -0.2188 Q0.1406 -0.0781 0.25 -0.0312 Q0.2812 -0.0156 0.3438 -0.0156 Q0.4375 -0.0156 0.5156 -0.0781 Q0.5938 -0.1406 0.625 -0.2344 Q0.625 -0.25 0.6406 -0.25 Q0.6406 -0.25 0.6406 -0.2344 Q0.6406 -0.2188 0.625 -0.1719 Q0.5938 -0.1094 0.5312 -0.0625 Q0.4375 0.0156 0.3281 0.0156 Q0.1875 0.0156 0.1094 -0.0625 Q0.0469 -0.1406 0.0469 -0.25 Q0.0469 -0.4062 0.1562 -0.5312 Q0.2656 -0.6562 0.3906 -0.6875 Q0.4531 -0.7031 0.5 -0.7031 Q0.6094 -0.7031 0.6562 -0.6094 L0.7344 -0.6875 Q0.75 -0.7031 0.75 -0.7031 Q0.7656 -0.7031 0.7656 -0.6875 Z"
    /></g
    ><g transform="matrix(10,0,0,10,4,12.9444) translate(7.086,0)" style="font-size:1; text-rendering:geometricPrecision; color-rendering:optimizeQuality; image-rendering:optimizeQuality; font-family:&apos;jlm_cmmi10&apos;; color-interpolation:linearRGB;"
    ><path style="stroke:none;" d="M0.6719 -0.2344 L0.125 0.0312 Q0.1094 0.0469 0.1094 0.0469 Q0.0938 0.0469 0.0781 0.0312 Q0.0781 0.0156 0.0781 0.0156 Q0.0781 0.0156 0.1094 0 L0.625 -0.25 L0.1094 -0.5 Q0.0781 -0.5156 0.0781 -0.5156 Q0.0781 -0.5312 0.0938 -0.5312 Q0.0938 -0.5469 0.1094 -0.5469 Q0.1094 -0.5469 0.125 -0.5312 L0.6719 -0.2656 Q0.6875 -0.2656 0.6875 -0.25 Q0.6875 -0.2344 0.6719 -0.2344 Z"
    /></g
  ></g
></svg
>
<!--
@startuml
skinparam dpi 300
Alice -> SmartContract: <latex>\tiny{<\beta_C, \overline{\beta_C}, \beta_H>}</latex>
SmartContract -> Hub: <latex>\tiny{<\beta_C, \overline{\beta_C}, \beta_H, \alpha_C>}</latex>
@enduml

PlantUML version 1.2018.10(Sat Aug 25 19:02:59 CEST 2018)
(GPL source distribution)
Java Runtime: Java(TM) SE Runtime Environment
JVM: Java HotSpot(TM) 64-Bit Server VM
Java Version: 10.0.2+13
Operating System: Mac OS X
OS Version: 10.13.6
Default Encoding: UTF-8
Language: en
Country: US
--></g></svg>